<?xml version="1.0" standalone="no"?>
<!DOCTYPE svg PUBLIC "-//W3C//DTD SVG 20010904//EN"
 "http://www.w3.org/TR/2001/REC-SVG-20010904/DTD/svg10.dtd">
<svg version="1.0" xmlns="http://www.w3.org/2000/svg"
 width="2254.000000pt" height="1447.000000pt" viewBox="0 0 2254.000000 1447.000000"
 preserveAspectRatio="xMidYMid meet">

<g transform="translate(0.000000,1447.000000) scale(0.100000,-0.100000)"
fill="#ffffff" stroke="none">
<path fill="#3B3B3B" d="M6201 14459 c-107 -15 -280 -61 -405 -109 -752 -291 -1431 -1017
-2489 -2662 -646 -1004 -954 -1688 -1142 -2532 -53 -239 -90 -452 -144 -831
-102 -716 -136 -1119 -146 -1775 -15 -910 -89 -1822 -190 -2325 -197 -984
-588 -2081 -1063 -2980 -152 -289 -233 -429 -425 -734 -184 -293 -219 -388
-167 -461 51 -72 136 -65 490 42 512 153 1128 444 1650 777 376 241 689 499
1096 905 576 576 960 1076 1222 1591 114 223 245 342 427 390 70 18 106 19
177 4 139 -29 234 -138 328 -374 135 -342 231 -361 393 -78 159 277 329 824
382 1227 31 236 16 411 -60 726 -116 474 -172 607 -730 1730 -574 1154 -613
1274 -602 1845 5 298 18 387 97 700 163 643 368 1185 664 1760 250 484 513
890 644 993 99 78 235 119 337 101 184 -33 329 -173 539 -521 89 -149 155
-245 201 -293 42 -45 77 -46 135 -4 45 33 250 240 531 539 91 96 203 208 250
248 255 221 541 349 1089 487 649 163 880 263 880 383 0 42 -28 93 -62 116
-102 67 -632 192 -1298 306 -596 102 -732 150 -1160 410 -353 214 -618 322
-935 381 -128 24 -400 33 -514 18z"/>
<path fill="#FB4949" d="M6795 10806 c-55 -25 -70 -51 -69 -125 1 -72 15 -116 123 -391 226
-572 428 -1356 515 -1995 68 -497 57 -1485 -25 -2185 -65 -555 -277 -1269
-582 -1955 -335 -755 -819 -1526 -1335 -2129 -344 -402 -1104 -1162 -1582
-1582 -261 -230 -310 -286 -295 -333 29 -92 386 -103 2492 -81 938 10 1185 19
1253 46 38 15 40 18 40 60 0 117 -139 252 -330 323 -101 37 -342 109 -610 181
-471 127 -663 200 -729 276 -26 29 -31 42 -26 63 9 39 138 262 266 461 362
563 486 777 712 1230 186 372 259 532 402 890 355 886 611 1865 696 2655 17
157 24 1727 10 1990 -16 283 -40 436 -132 834 -179 776 -528 1645 -707 1763
-32 21 -47 22 -87 4z"/>
<path d="M7820 3655 l0 -1485 390 0 390 0 0 1190 0 1190 110 0 110 0 0 -1190
0 -1190 390 0 390 0 0 1485 0 1485 -890 0 -890 0 0 -1485z"/>
<path fill="#FB4949" d="M9910 3655 l0 -1485 341 2 342 3 196 661 196 661 3 -663 2 -664 325
0 325 0 0 1485 0 1485 -327 -2 -326 -3 -211 -654 -211 -655 -3 657 -2 657
-325 0 -325 0 0 -1485z"/>
<path d="M14020 3655 l0 -1485 390 0 390 0 0 1190 0 1190 280 0 280 0 0 295 0
295 -670 0 -670 0 0 -1485z"/>
<path fill="#FB4949" d="M17630 3655 l0 -1485 341 2 342 3 196 661 196 661 3 -663 2 -664 325
0 325 0 0 1485 0 1485 -327 -2 -326 -3 -211 -654 -211 -655 -3 657 -2 657
-325 0 -325 0 0 -1485z"/>
<path d="M11930 3650 l0 -1480 390 0 390 0 0 620 0 620 110 0 110 0 0 -620 0
-620 390 0 390 0 0 1480 0 1480 -390 0 -390 0 0 -530 0 -530 -110 0 -110 0 0
530 0 530 -390 0 -390 0 0 -1480z"/>
<path d="M15560 3651 l0 -1481 568 0 c822 0 944 15 1076 131 58 51 109 155
133 269 27 126 27 712 0 815 -50 196 -141 290 -342 354 l-82 27 63 18 c259 74
324 177 324 516 1 327 -51 498 -193 641 -88 89 -200 138 -387 170 -39 7 -280
13 -612 16 l-548 5 0 -1481z m884 959 c96 -16 124 -56 136 -194 9 -105 -3
-337 -19 -382 -16 -43 -57 -63 -145 -71 l-76 -6 0 332 0 331 23 0 c12 0 48 -4
81 -10z m55 -1134 c57 -19 71 -49 83 -177 11 -128 4 -455 -12 -510 -18 -63
-64 -90 -177 -104 l-53 -7 0 412 0 411 63 -7 c34 -4 77 -12 96 -18z"/>
<path d="M19660 3650 l0 -1480 390 0 390 0 0 620 0 620 110 0 110 0 0 -620 0
-620 390 0 390 0 0 1480 0 1480 -390 0 -390 0 0 -530 0 -530 -110 0 -110 0 0
530 0 530 -390 0 -390 0 0 -1480z"/>
<path d="M12082 1334 c-29 -14 -61 -38 -73 -52 l-21 -27 4 43 4 42 -153 0
-153 0 0 -555 0 -555 150 0 150 0 0 106 0 106 37 -32 c48 -43 92 -60 150 -60
92 1 160 50 185 134 14 47 18 676 5 738 -24 115 -167 171 -285 112z m-22 -154
c13 -8 15 -55 15 -325 0 -270 -2 -317 -15 -325 -8 -5 -19 -10 -25 -10 -5 0
-17 5 -25 10 -13 8 -15 55 -15 325 0 270 2 317 15 325 8 5 20 10 25 10 6 0 17
-5 25 -10z"/>
<path d="M12667 1350 c-100 -26 -178 -91 -202 -172 -8 -28 -15 -87 -15 -130
l0 -78 140 0 140 0 0 99 c0 104 9 127 47 119 27 -5 43 -47 43 -114 0 -44 -5
-68 -17 -83 -10 -11 -78 -48 -152 -81 -148 -66 -176 -86 -191 -139 -13 -48
-13 -246 1 -296 21 -74 101 -125 198 -125 55 0 105 22 141 62 l30 32 0 -37 0
-37 146 0 146 0 -5 393 c-3 280 -8 403 -17 429 -20 56 -64 104 -126 134 -49
24 -71 28 -163 30 -58 2 -123 -1 -144 -6z m143 -810 c-6 -11 -18 -20 -28 -20
-37 0 -46 17 -50 95 -6 106 3 139 46 182 l37 37 3 -137 c1 -83 -2 -145 -8
-157z"/>
<path d="M13933 1341 c-116 -40 -172 -108 -192 -231 -14 -84 -14 -426 0 -510
27 -171 154 -257 363 -248 143 6 221 52 282 168 14 26 19 63 22 148 l4 112
-140 0 -140 0 -4 -115 c-3 -127 -15 -153 -61 -141 -33 8 -37 27 -37 184 l0
132 191 0 191 0 -4 148 c-5 175 -22 227 -96 292 -84 75 -259 103 -379 61z
m165 -163 c7 -7 12 -44 12 -95 l0 -83 -40 0 -40 0 0 69 c0 38 4 81 10 95 10
28 38 34 58 14z"/>
<path d="M16149 1344 c-78 -24 -140 -73 -174 -139 l-30 -59 0 -270 c0 -228 3
-280 17 -327 41 -131 123 -188 282 -197 166 -8 263 39 323 158 28 55 34 80 39
163 l7 97 -137 0 -136 0 0 -104 c0 -85 -3 -108 -18 -126 -24 -30 -57 -20 -71
22 -12 33 -16 555 -5 595 8 29 42 40 61 20 11 -11 17 -44 21 -111 l5 -96 140
0 140 0 -7 74 c-11 121 -31 174 -86 228 -37 36 -65 52 -115 67 -79 25 -187 27
-256 5z"/>
<path d="M18315 1347 c-100 -34 -164 -93 -191 -179 -21 -69 -32 -436 -15 -557
26 -196 130 -270 363 -259 150 7 229 55 282 168 20 42 21 62 21 340 0 285 -1
296 -22 336 -32 59 -79 103 -143 132 -44 21 -73 26 -155 29 -65 2 -114 -2
-140 -10z m153 -169 c9 -9 12 -95 12 -324 0 -333 -2 -344 -49 -329 -30 9 -32
40 -29 358 3 243 5 289 18 297 20 13 34 12 48 -2z"/>
<path d="M10320 1240 l0 -100 85 0 85 0 0 -385 0 -385 150 0 150 0 0 385 0
385 85 0 84 0 3 63 c3 54 13 10 88 -361 83 -414 85 -424 66 -438 -11 -8 -37
-14 -58 -14 l-38 0 0 -81 0 -81 168 4 c144 3 173 7 214 25 75 34 106 94 127
248 12 80 101 814 101 826 0 5 -60 9 -133 9 l-133 0 -23 -317 c-13 -175 -24
-319 -25 -320 -1 -2 -22 129 -45 290 -24 160 -45 304 -48 320 l-5 27 -449 0
-449 0 0 -100z"/>
<path d="M13220 855 l0 -485 150 0 150 0 0 400 0 400 85 0 85 0 0 85 0 85
-235 0 -235 0 0 -485z"/>
<path d="M14500 855 l0 -485 150 0 150 0 0 180 0 180 50 0 50 0 0 -180 0 -180
150 0 150 0 0 485 0 485 -150 0 -150 0 0 -175 0 -175 -50 0 -50 0 0 175 0 175
-150 0 -150 0 0 -485z"/>
<path d="M15250 1240 l0 -100 85 0 85 0 0 -385 0 -385 150 0 150 0 0 385 0
385 85 0 85 0 0 100 0 100 -320 0 -320 0 0 -100z"/>
<path d="M16640 1240 l0 -100 85 0 85 0 0 -385 0 -385 150 0 150 0 0 385 0
385 85 0 85 0 0 100 0 100 -320 0 -320 0 0 -100z"/>
<path d="M17340 856 l0 -486 228 0 c399 0 449 27 460 246 7 143 -22 205 -116
251 l-53 26 36 13 c83 28 122 102 112 211 -10 103 -39 151 -112 188 l-60 30
-247 3 -248 4 0 -486z m377 263 c7 -7 13 -31 13 -59 0 -53 -11 -67 -58 -76
l-32 -6 0 82 0 83 32 -7 c17 -3 37 -11 45 -17z m0 -340 c17 -15 18 -158 1
-182 -7 -9 -28 -20 -45 -23 l-33 -6 0 117 0 118 32 -7 c17 -3 37 -11 45 -17z"/>
</g>
</svg>
