<?xml version="1.0" encoding="UTF-8"?>
<svg xmlns="http://www.w3.org/2000/svg" xmlns:xlink="http://www.w3.org/1999/xlink" width="29pt" height="28pt" viewBox="0 0 29 28" version="1.1">
<g id="surface1">
<path style="fill-rule:evenodd;fill:rgb(99.607843%,81.960784%,0.784314%);fill-opacity:1;stroke-width:9;stroke-linecap:butt;stroke-linejoin:miter;stroke:rgb(100%,100%,100%);stroke-opacity:1;stroke-miterlimit:4;" d="M 499.987069 495.003348 L 508.522091 501.006696 L 508.797414 501.143136 L 508.935075 501.552455 L 512.514278 501.825335 L 515.955819 501.961775 L 516.506466 500.051618 L 516.506466 495.003348 L 515.955819 492.956752 C 515.680496 491.728795 515.129849 489.818638 514.441541 487.499163 C 513.890894 485.179688 511.688308 479.722098 507.971444 470.989955 C 504.392241 462.394252 502.327317 455.026507 502.051994 449.023158 C 501.639009 443.01981 501.77667 438.790179 502.464978 436.470703 C 503.153287 434.151228 504.116918 432.104632 505.493534 430.467355 C 506.870151 428.830078 509.34806 426.510603 513.064925 423.508929 C 516.644127 420.507254 521.462284 417.77846 527.244073 415.186105 C 533.025862 412.73019 541.010237 411.365792 551.059537 410.956473 C 560.971175 410.683594 569.368534 411.365792 575.976293 413.003069 C 582.721713 414.640346 588.365841 416.686942 593.046336 419.006417 C 597.726832 421.325893 601.994343 424.464007 605.848869 428.147879 C 609.565733 432.104632 613.007274 436.334263 616.03583 440.973214 C 619.064386 445.612165 621.679957 451.206194 624.020205 457.482422 C 626.360453 463.895089 627.599407 470.171317 628.012392 476.447545 C 628.287716 482.860212 627.461746 490.637277 625.534483 500.051618 C 623.469558 509.32952 619.890356 519.289621 614.521552 529.93192 C 609.152748 540.710658 604.609914 548.214844 600.755388 552.853795 C 596.900862 557.219866 593.872306 560.903739 591.532058 563.768973 C 589.19181 566.634208 586.163254 569.226562 582.44639 571.818917 C 578.867188 574.274833 573.636045 577.140067 567.028287 580.55106 C 560.282866 583.825614 552.849138 586.554408 544.451778 588.464565 C 536.19208 590.511161 522.976563 591.602679 504.942888 592.011998 C 487.046875 592.284877 475.207974 592.011998 469.563847 591.05692 C 463.782058 589.965402 458.550916 588.601004 453.457435 586.963728 C 448.501616 585.326451 444.371767 583.143415 441.067888 580.55106 C 437.626347 577.822266 434.184806 573.865513 430.467942 568.544364 C 426.888739 563.223214 422.75889 556.401228 418.216056 548.214844 C 413.673222 540.02846 408.992726 529.93192 404.036907 518.061663 C 398.943427 506.054967 395.501886 496.504185 393.436961 489.545759 C 391.509698 482.450893 390.270744 474.400949 389.99542 464.986607 C 389.720097 455.708705 389.857759 449.159598 390.546067 445.475725 C 391.234375 441.791853 392.610991 436.197824 394.951239 428.557199 C 397.291487 420.780134 400.457705 413.139509 404.449892 405.498884 C 408.44208 397.858259 413.397899 390.217634 419.042026 382.440569 C 424.686153 374.799944 433.221175 365.112723 444.509429 353.515346 C 455.797683 341.781529 462.405442 335.505301 464.195043 334.550223 C 466.122306 333.458705 467.085938 332.640067 467.223599 331.957868 C 467.361261 331.27567 468.462554 330.457031 470.252155 329.229074 C 472.041756 328.001116 476.722252 324.726562 484.155981 319.132533 C 491.727371 313.674944 499.436422 308.626674 507.558459 303.987723 C 515.542834 299.348772 524.353179 295.119141 534.264817 291.162388 C 544.038793 287.342076 552.849138 284.613281 560.55819 282.976004 C 568.12958 281.338728 578.316541 280.38365 590.981412 279.97433 C 603.646282 279.701451 612.181304 279.837891 616.448815 280.520089 C 620.853987 281.202288 628.563039 282.839565 639.438308 285.43192 C 650.451239 288.160714 661.326509 292.117467 672.064116 297.438616 C 682.664063 302.896205 691.336746 307.808036 697.944504 312.446987 C 704.689925 317.222377 709.37042 321.04269 711.985991 324.180804 C 714.601563 327.455357 716.391164 329.092634 716.94181 329.229074 C 717.630119 329.365513 720.108028 331.957868 724.5132 337.006138 C 728.780711 342.054408 733.598869 348.603516 738.830011 356.7899 C 743.923491 364.976283 747.640356 372.344029 749.980603 379.029576 C 752.320851 385.715123 754.661099 396.630301 757.001347 412.047991 C 759.341595 427.329241 760.442888 447.113002 760.442888 471.535714 C 760.442888 495.821987 759.616918 513.286272 757.964978 524.065011 C 756.313039 534.70731 753.697468 544.94029 749.980603 555.03683 C 746.401401 564.996931 742.546875 573.456194 738.554688 580.55106 C 734.5625 587.509487 729.469019 594.877232 723.549569 602.517857 C 717.492457 610.158482 711.297683 617.116908 704.965248 623.529576 C 698.632813 629.805804 691.061422 636.49135 681.975754 643.449777 C 673.027748 650.544643 663.94208 656.95731 654.856412 662.824219 C 645.633082 668.554688 635.721444 674.285156 624.983836 680.015625 C 614.38389 685.609654 601.719019 691.476562 586.989224 697.479911 C 572.397091 703.483259 557.529634 708.531529 542.524515 712.488281 C 527.519397 716.445033 511.688308 719.856027 495.03125 722.448382 C 478.374192 725.177176 460.891164 726.541574 442.444504 726.541574 C 424.135506 726.541574 412.158944 725.995815 406.514817 725.040737 C 400.87069 723.949219 392.335668 722.039062 381.047414 719.037388 C 369.621498 716.035714 358.470905 711.806083 347.457974 706.484933 C 336.445043 701.163783 327.359375 695.979074 320.063308 691.067243 C 312.62958 686.018973 305.333513 680.152065 298.037446 673.466518 C 290.603718 666.780971 283.169989 659.003906 275.460938 649.998884 C 267.889547 640.993862 260.868804 631.306641 254.811692 620.800781 C 248.616918 610.294922 243.661099 599.789062 239.944235 589.556083 C 236.365032 579.186663 233.336476 568.271484 230.996228 556.946987 C 228.655981 545.622489 227.141703 533.479353 226.453394 520.517578 C 225.765086 507.555804 226.040409 494.04827 227.004041 479.994978 C 227.967672 465.941685 229.894935 452.297712 232.510506 439.063058 C 235.126078 425.691964 238.292295 413.685268 242.009159 403.042969 C 245.726024 392.40067 250.131196 381.621931 255.5 370.979632 C 260.868804 360.337333 265.824623 351.33231 270.505119 343.964565 C 275.185614 336.733259 281.51805 328.273996 289.502425 318.996094 C 297.4868 309.718192 307.536099 299.348772 319.787985 288.160714 C 331.902209 277.109096 338.509968 270.969308 339.473599 269.74135 C 340.437231 268.649833 345.668373 264.69308 354.754041 258.007533 C 363.977371 251.321987 372.237069 245.591518 379.808459 240.816127 C 387.242188 235.904297 395.364224 231.538225 404.036907 227.445033 C 412.709591 223.488281 420.831627 221.305246 428.540679 221.032366 C 436.112069 220.623047 442.169181 221.305246 446.436692 222.942522 C 450.841864 224.716239 453.732759 226.217076 454.971713 227.854353 C 456.34833 229.21875 457.311961 230.037388 458.000269 230.173828 C 458.688578 230.446708 460.065194 232.629743 462.26778 236.859375 C 464.332705 240.952567 465.709321 246.819475 465.984644 254.4601 C 466.397629 262.100725 465.296336 270.287109 462.956088 279.019252 C 460.615841 287.614955 457.587284 295.119141 453.732759 301.531808 C 449.878233 307.808036 447.675647 311.082589 446.987338 311.219029 C 446.29903 311.355469 444.647091 313.129185 441.756196 316.267299 C 438.865302 319.405413 435.010776 322.407087 430.192619 325.135882 C 425.374461 328.001116 419.455011 332.367188 412.434267 337.961217 C 405.551185 343.691685 398.39278 350.104353 390.959052 357.472098 C 383.662985 364.839844 377.881196 371.388951 373.476024 377.255859 C 369.208513 383.122768 366.730603 386.124442 366.042295 386.260882 C 365.353987 386.397321 362.187769 391.309152 356.543642 400.996373 C 350.899515 410.683594 345.943696 420.643694 341.813847 430.740234 C 337.546336 440.973214 334.104795 452.434152 331.489224 465.532366 C 328.873653 478.494141 327.359375 490.364397 326.94639 501.006696 C 326.671067 511.648996 327.221713 521.336217 328.460668 529.93192 C 329.837284 538.664062 332.177532 547.532645 335.481412 556.537667 C 338.785291 565.54269 343.052802 574.001953 348.008621 582.051897 C 352.96444 589.965402 356.681304 595.150112 359.159213 597.469587 C 361.774784 599.789062 363.013739 601.2899 363.151401 601.972098 C 363.426724 602.654297 364.390356 603.609375 366.179957 604.973772 C 368.10722 606.33817 369.070851 607.293248 369.208513 607.975446 C 369.346175 608.657645 371.686422 610.977121 376.229256 614.797433 C 380.772091 618.617746 384.488955 621.2101 387.517511 622.847377 C 390.546067 624.211775 392.060345 625.303292 392.060345 625.985491 C 392.060345 626.66769 395.914871 628.714286 403.761584 631.988839 C 411.608297 635.399833 420.969289 638.265067 431.844558 640.857422 C 442.582166 643.313337 453.319774 644.677734 464.057381 644.950614 C 474.657328 645.359933 486.358567 644.541295 499.023438 642.494699 C 511.688308 640.448103 521.875269 638.128627 529.446659 635.536272 C 537.155711 632.807478 544.864763 629.669364 552.436153 625.985491 C 560.145205 622.301618 564.963362 619.982143 567.028287 619.027065 C 568.95555 617.935547 571.846444 616.29827 575.563308 613.978795 C 579.142511 611.659319 585.061961 607.293248 593.046336 601.01702 C 601.030711 594.604353 606.124192 590.238281 608.46444 587.782366 C 610.804688 585.326451 612.318966 583.962054 613.007274 583.825614 C 613.695582 583.552734 615.622845 581.642578 619.064386 577.822266 C 622.368265 573.865513 624.43319 571.818917 625.259159 571.546038 C 626.085129 571.136719 630.627963 565.54269 639.025323 554.491071 C 647.285022 543.439453 654.305765 532.387835 659.949892 521.063337 C 665.731681 509.6024 670.136853 498.277902 673.440733 486.953404 C 676.882274 475.628906 679.222522 464.440848 680.461476 453.52567 C 681.838093 442.474051 682.113416 431.149554 681.562769 419.552176 C 680.874461 407.818359 679.773168 401.269252 678.25889 400.041295 C 676.744612 398.676897 675.918642 397.721819 675.780981 397.039621 C 675.643319 396.357422 673.440733 393.628627 669.448545 388.989676 C 665.456358 384.350725 661.326509 380.121094 657.058998 376.437221 C 652.653825 372.889788 647.422683 369.205915 641.227909 365.794922 C 635.033136 362.247489 628.563039 359.518694 621.542295 357.472098 C 614.521552 355.561942 606.674838 354.333984 598.002155 354.061105 C 589.329472 353.651786 580.656789 354.333984 571.984106 355.971261 C 563.311422 357.608538 554.501078 360.337333 545.553071 364.021205 C 536.467403 367.705078 527.657058 371.79827 518.984375 376.437221 C 510.311692 381.212612 503.015625 385.988002 497.233836 390.763393 C 491.452047 395.538783 487.322198 399.222656 484.844289 401.542132 C 482.228718 403.861607 480.301455 406.317522 479.0625 408.773438 C 477.685884 411.229353 476.033944 414.776786 474.244343 419.142857 C 472.454741 423.781808 471.353448 430.058036 470.940463 437.97154 C 470.66514 446.021484 470.940463 451.888393 472.041756 455.435826 C 473.005388 459.119699 474.794989 464.031529 477.548222 470.034877 C 480.163793 476.038225 483.192349 480.677176 486.496228 483.95173 C 489.800108 487.362723 494.342942 491.046596 499.987069 495.003348 Z M 499.987069 495.003348 " transform="matrix(0.0283757,0,0,0.0286299,0,0)"/>
<path style="fill-rule:evenodd;fill:rgb(99.607843%,81.960784%,0.784314%);fill-opacity:1;stroke-width:9;stroke-linecap:butt;stroke-linejoin:miter;stroke:rgb(100%,100%,100%);stroke-opacity:1;stroke-miterlimit:4;" d="M 670.962823 713.03404 C 676.331627 712.624721 681.149784 713.30692 685.554957 714.944196 C 689.822468 716.717913 694.365302 719.446708 699.045797 723.5399 C 703.726293 727.496652 708.682112 732.954241 714.188578 739.776228 C 719.695043 746.598214 725.614494 755.057478 731.809267 765.154018 C 737.866379 775.386998 748.466325 796.671596 763.196121 829.144252 C 778.063578 861.753348 785.634968 880.036272 786.047953 883.993025 C 786.323276 887.949777 786.185614 891.22433 785.497306 893.543806 C 784.808998 895.863281 782.881735 898.728516 779.853179 902.139509 C 776.5493 905.686942 772.970097 908.552176 768.977909 910.462333 C 764.985722 912.508929 760.855873 913.600446 756.4507 914.009766 C 752.18319 914.282645 748.603987 914.009766 745.988416 913.054688 C 743.372845 911.96317 737.728718 907.733538 729.056034 900.229353 C 720.383351 892.725167 714.601563 887.267578 711.985991 883.856585 C 709.37042 880.309152 704.001616 873.350725 696.154903 863.254185 C 688.445851 853.021205 680.599138 841.287388 673.027748 828.052734 C 665.318696 814.681641 658.160291 799.67327 651.552532 783.027623 C 644.807112 766.381975 641.503233 753.82952 641.503233 745.506696 C 641.503233 737.183873 642.604526 731.180525 644.807112 727.496652 C 646.872037 723.812779 648.661638 721.629743 649.762931 720.947545 C 651.001886 720.265346 653.342134 718.900949 657.196659 716.854353 C 661.051185 714.534877 665.731681 713.30692 670.962823 713.03404 Z M 670.962823 713.03404 " transform="matrix(0.0283757,0,0,0.0286299,0,0)"/>
<path style="fill-rule:evenodd;fill:rgb(99.607843%,81.960784%,0.784314%);fill-opacity:1;stroke-width:9;stroke-linecap:butt;stroke-linejoin:miter;stroke:rgb(100%,100%,100%);stroke-opacity:1;stroke-miterlimit:4;" d="M 558.493265 11.733817 L 563.999731 6.958426 L 579.004849 6.958426 L 579.004849 7.504185 L 580.932112 8.049944 L 582.997037 8.459263 L 583.960668 9.005022 L 585.061961 9.550781 L 586.025593 9.9601 C 586.713901 10.36942 587.677532 10.778739 589.054149 11.460938 C 590.293103 12.143136 591.807381 13.371094 593.459321 15.008371 C 595.111261 16.645647 597.313847 19.783761 599.791756 24.149833 C 602.269666 28.788783 603.508621 37.520926 603.508621 50.482701 C 603.508621 63.444475 602.820313 75.860491 601.443696 87.457868 C 600.204741 99.191685 598.277478 112.01702 595.937231 125.933873 C 593.734644 139.987165 590.706088 153.494699 586.989224 166.456473 C 583.27236 179.554688 580.381466 188.55971 578.041218 193.47154 C 575.70097 198.51981 572.534752 203.158761 568.817888 207.524833 C 564.963362 211.890904 561.797144 214.346819 559.456897 215.165458 C 557.116649 216.120536 553.675108 216.529855 548.994612 216.529855 C 544.314116 216.529855 540.046606 215.438337 536.054418 213.255301 C 532.062231 211.072266 529.446659 209.02567 528.207705 206.979074 C 527.106412 204.932478 525.729795 201.657924 523.940194 197.018973 C 522.288254 192.380022 521.324623 181.328404 521.0493 164.000558 C 520.636315 146.672712 521.0493 133.028739 522.012931 122.932199 C 522.976563 112.972098 524.628502 102.05692 526.96875 90.050223 C 529.308998 78.043527 532.337554 66.30971 536.054418 54.985212 C 539.633621 43.660714 543.350485 34.382812 547.205011 27.151507 C 551.059537 20.056641 554.776401 14.871931 558.493265 11.733817 Z M 558.493265 11.733817 " transform="matrix(0.0283757,0,0,0.0286299,0,0)"/>
<path style="fill-rule:evenodd;fill:rgb(99.607843%,81.960784%,0.784314%);fill-opacity:1;stroke-width:9;stroke-linecap:butt;stroke-linejoin:miter;stroke:rgb(100%,100%,100%);stroke-opacity:1;stroke-miterlimit:4;" d="M 9.22333 475.765346 L 8.948006 475.492467 L 8.810345 475.219587 L 8.535022 474.946708 L 8.259698 474.810268 L 7.984375 474.537388 L 7.846713 474.264509 L 7.433728 473.991629 L 7.158405 473.85519 L 7.020744 473.445871 L 6.74542 473.172991 L 6.470097 473.036551 L 6.057112 471.535714 L 5.506466 470.034877 L 4.955819 470.034877 L 4.955819 458.983259 L 5.506466 458.983259 L 6.057112 457.482422 L 6.470097 455.981585 L 7.020744 455.026507 L 7.433728 453.934989 L 8.535022 452.024833 L 15.831088 445.748605 C 20.649246 441.655413 28.771282 437.698661 40.472522 434.014788 C 52.173761 430.330915 63.324353 428.01144 74.061961 427.056362 C 84.661907 425.964844 98.978718 425.828404 117.012392 426.510603 C 135.046067 427.192801 149.775862 428.830078 161.477101 431.558873 C 173.178341 434.151228 181.713362 436.743583 187.219828 439.199498 C 192.726293 441.791853 196.993804 443.974888 200.02236 446.021484 C 203.050916 448.06808 205.666487 450.796875 208.006735 454.480748 C 210.346983 458.164621 211.310614 461.848493 211.035291 465.532366 C 210.622306 469.216239 209.796336 472.217913 208.144397 474.810268 C 206.76778 477.266183 203.188578 480.267857 197.54445 483.95173 C 191.900323 487.635603 185.154903 490.637277 177.445851 492.956752 C 169.874461 495.276228 158.86153 497.322824 144.54472 498.9601 C 130.227909 500.733817 115.498114 501.143136 100.492996 500.460938 C 85.487877 499.778739 72.685345 498.550781 61.947737 496.504185 C 51.347791 494.457589 41.16083 491.728795 31.524515 488.181362 C 21.8882 484.770368 16.932381 482.723772 16.932381 482.041574 C 16.932381 481.359375 15.693427 480.131417 13.215517 478.494141 C 10.737608 476.856864 9.360991 475.901786 9.22333 475.765346 Z M 9.22333 475.765346 " transform="matrix(0.0283757,0,0,0.0286299,0,0)"/>
<path style="fill-rule:evenodd;fill:rgb(99.607843%,81.960784%,0.784314%);fill-opacity:1;stroke-width:9;stroke-linecap:butt;stroke-linejoin:miter;stroke:rgb(100%,100%,100%);stroke-opacity:1;stroke-miterlimit:4;" d="M 796.372575 589.010324 C 805.458244 588.601004 813.993265 589.692522 821.97764 592.284877 C 829.962015 594.740792 838.497037 598.561105 847.582705 603.609375 C 856.668373 608.657645 867.681304 615.343192 880.483836 623.802455 C 893.42403 632.261719 899.894127 636.90067 899.894127 637.582868 C 899.894127 638.265067 900.720097 639.083705 902.509698 640.038783 C 904.2993 640.857422 906.364224 641.94894 908.704472 643.176897 C 911.182381 644.541295 912.558998 645.496373 912.696659 646.178571 C 912.834321 646.99721 921.231681 653.409877 937.751078 665.416574 C 954.270474 677.42327 963.906789 685.063895 966.660022 688.202009 C 969.137931 691.203683 970.652209 695.160435 971.065194 700.208705 C 971.340517 705.256975 970.514547 710.987444 968.449623 717.536551 C 966.247037 723.949219 963.769127 728.997489 960.740571 732.408482 C 957.849677 735.819475 953.582166 737.456752 947.938039 737.456752 C 942.431573 737.456752 934.722522 735.000837 924.948545 729.952567 C 915.174569 724.904297 899.481142 716.445033 877.868265 704.574777 C 856.255388 692.70452 843.590517 685.746094 839.735991 683.835938 C 835.881466 681.789342 833.954203 680.424944 833.954203 679.742746 C 833.954203 679.060547 833.678879 678.514788 832.990571 678.378348 C 832.302263 678.241908 823.767241 672.920759 807.247845 662.4149 C 790.86611 652.04548 780.954472 645.223493 777.237608 642.085379 C 773.658405 639.083705 770.905172 636.218471 769.115571 633.216797 C 767.32597 630.351562 766.362338 626.258371 765.949353 620.800781 C 765.67403 615.479632 765.811692 611.795759 766.5 610.022042 C 767.188308 608.248326 768.289601 605.92885 769.666218 603.063616 C 771.042834 600.198382 773.658405 597.196708 777.237608 594.195033 C 780.954472 591.05692 787.286907 589.419643 796.372575 589.010324 Z M 796.372575 589.010324 " transform="matrix(0.0283757,0,0,0.0286299,0,0)"/>
<path style="fill-rule:evenodd;fill:rgb(99.607843%,81.960784%,0.784314%);fill-opacity:1;stroke-width:9;stroke-linecap:butt;stroke-linejoin:miter;stroke:rgb(100%,100%,100%);stroke-opacity:1;stroke-miterlimit:4;" d="M 224.113147 29.880301 L 224.250808 29.470982 L 227.554688 29.470982 C 229.894935 29.470982 232.648168 30.42606 235.952047 32.336217 C 239.255927 34.109933 242.972791 37.111607 247.10264 41.204799 C 251.094828 45.297991 257.289601 53.211496 265.5493 64.945312 C 273.946659 76.679129 279.04014 84.183315 280.69208 87.594308 C 282.344019 91.005301 283.582974 92.642578 284.271282 92.642578 C 284.959591 92.642578 287.4375 96.59933 291.567349 104.649275 C 295.559537 112.699219 301.066002 124.296596 307.811422 139.714286 C 314.694504 155.268415 320.063308 169.458147 323.780172 182.556362 C 327.359375 195.518136 329.974946 207.115513 331.489224 217.212054 C 333.003502 227.172154 333.003502 234.13058 331.489224 237.814453 C 329.974946 241.498326 328.047683 244.227121 325.569774 245.864397 C 323.229526 247.638114 320.338631 248.593192 317.034752 249.002511 C 313.730873 249.41183 310.014009 249.002511 305.884159 247.910993 C 301.891972 246.819475 297.762123 244.772879 293.769935 242.044085 C 289.640086 239.17885 287.575162 237.405134 287.4375 236.722935 C 287.162177 235.904297 285.510237 234.13058 282.344019 231.401786 C 279.177802 228.536551 273.396013 222.396763 264.860991 212.709542 C 256.32597 203.022321 249.029903 193.74442 243.110453 184.739397 C 237.191002 175.870815 233.336476 169.731027 231.546875 166.320033 C 229.619612 163.04548 227.279364 158.270089 224.526131 151.993862 C 221.772899 145.990513 218.882004 137.53125 215.99111 126.616071 C 212.962554 115.837333 211.448276 103.421317 211.448276 89.231585 C 211.448276 75.178292 212.549569 63.444475 214.889817 54.030134 C 217.092403 44.752232 219.157328 38.476004 220.946929 35.065011 C 222.73653 31.790458 223.837823 30.016741 224.113147 29.880301 Z M 224.113147 29.880301 " transform="matrix(0.0283757,0,0,0.0286299,0,0)"/>
<path style="fill-rule:evenodd;fill:rgb(99.607843%,81.960784%,0.784314%);fill-opacity:1;stroke-width:9;stroke-linecap:butt;stroke-linejoin:miter;stroke:rgb(100%,100%,100%);stroke-opacity:1;stroke-miterlimit:4;" d="M 1005.067619 413.139509 L 1008.371498 420.507254 L 1009.472791 429.239397 L 1010.023438 429.239397 L 1010.023438 434.560547 L 1009.472791 434.560547 L 1008.371498 442.201172 L 1007.958513 443.29269 C 1007.545528 443.974888 1006.994881 445.066406 1006.306573 446.567243 C 1005.618265 447.931641 1004.103987 449.841797 1001.901401 452.161272 C 999.698815 454.480748 995.293642 457.209542 988.685884 460.074777 C 982.078125 462.940011 971.615841 466.351004 957.436692 470.307757 C 943.119881 474.400949 923.021282 478.90346 897.003233 483.95173 C 870.985183 489 851.712554 491.455915 839.185345 491.455915 C 826.658136 491.455915 817.985453 490.364397 813.167295 488.181362 C 808.349138 486.134766 803.943966 483.67885 800.08944 481.222935 C 796.372575 478.63058 792.793373 475.356027 789.351832 471.262835 C 786.185614 467.033203 784.533675 462.394252 784.533675 457.345982 C 784.533675 452.297712 785.910291 448.34096 788.663524 445.475725 C 791.416756 442.610491 794.858297 439.881696 799.125808 437.289342 C 803.255657 434.833426 811.515356 431.285993 823.767241 426.783482 C 836.156789 422.280971 850.060614 418.187779 865.754041 414.503906 C 881.309806 410.956473 897.003233 408.091239 912.558998 405.908203 C 928.252425 403.725167 944.909483 402.087891 962.667834 400.996373 C 980.288524 399.904855 991.301455 400.450614 995.431304 402.63365 C 999.561153 404.816685 1002.727371 408.364118 1005.067619 413.139509 Z M 1005.067619 413.139509 " transform="matrix(0.0283757,0,0,0.0286299,0,0)"/>
<path style="fill-rule:evenodd;fill:rgb(99.607843%,81.960784%,0.784314%);fill-opacity:1;stroke-width:9;stroke-linecap:butt;stroke-linejoin:miter;stroke:rgb(100%,100%,100%);stroke-opacity:1;stroke-miterlimit:4;" d="M 526.831088 964.765346 L 526.418103 964.901786 L 525.867457 965.447545 L 523.664871 966.539062 L 522.563578 966.948382 L 521.324623 967.494141 L 520.22333 968.0399 L 519.122037 968.449219 L 519.122037 968.994978 L 507.971444 968.994978 L 507.971444 968.449219 L 506.870151 968.0399 L 505.768858 967.494141 L 504.529903 966.948382 L 503.42861 966.539062 L 503.290948 966.129743 L 502.877963 965.993304 L 502.327317 965.447545 L 501.226024 965.174665 C 500.537716 965.038225 498.885776 963.264509 496.545528 959.853516 C 494.067619 956.578962 491.727371 951.940011 489.524784 946.345982 C 487.184537 940.615513 485.119612 933.657087 483.330011 925.607143 C 481.402748 917.557199 480.439116 899.820033 480.439116 872.532087 C 480.439116 845.38058 481.953394 824.232422 484.98195 809.496931 C 488.010506 794.625 490.901401 784.119141 493.929957 777.706473 C 496.958513 771.293806 499.023438 767.200614 500.262392 765.290458 C 501.639009 763.380301 502.740302 762.425223 503.42861 762.288783 C 504.25458 762.152344 504.805226 761.606585 505.08055 760.787946 C 505.493534 759.969308 507.696121 759.559989 511.82597 759.559989 C 515.955819 759.559989 519.948006 760.651507 523.664871 762.970982 C 527.381735 765.426897 530.685614 768.155692 533.438847 771.293806 C 536.19208 774.568359 539.358297 779.889509 542.662177 787.257254 C 546.103718 794.625 548.994612 805.403739 551.610183 819.593471 C 554.225754 833.646763 555.327047 848.655134 555.051724 864.482143 C 554.638739 880.309152 553.262123 894.498884 551.059537 906.9149 C 548.85695 919.330915 546.379041 929.154576 543.76347 936.249442 C 541.147899 943.207868 538.532328 948.801897 535.916756 952.895089 C 533.301185 956.851842 531.236261 959.853516 529.446659 961.763672 C 527.79472 963.537388 526.96875 964.492467 526.831088 964.765346 Z M 526.831088 964.765346 " transform="matrix(0.0283757,0,0,0.0286299,0,0)"/>
<path style="fill-rule:evenodd;fill:rgb(99.607843%,81.960784%,0.784314%);fill-opacity:1;stroke-width:9;stroke-linecap:butt;stroke-linejoin:miter;stroke:rgb(100%,100%,100%);stroke-opacity:1;stroke-miterlimit:4;" d="M 359.572198 744.005859 C 364.528017 743.59654 368.382543 744.278739 371.273438 746.052455 C 374.164332 747.689732 376.50458 750.145647 378.569504 753.420201 C 380.496767 756.694754 381.59806 761.333705 382.011045 767.473493 C 382.42403 773.613281 382.011045 780.162388 380.909752 786.847935 C 379.808459 793.669922 377.605873 802.265625 374.02667 812.498605 C 370.447468 822.731585 365.353987 834.192522 359.021552 847.154297 C 352.551455 860.116071 345.117726 872.668527 336.858028 884.948103 C 328.323006 897.227679 323.780172 903.503906 323.091864 903.640346 C 322.403556 903.776786 320.476293 905.823382 317.172414 909.643694 C 314.006196 913.600446 311.528287 916.192801 309.738685 917.420759 C 307.949084 918.648717 303.819235 921.377511 297.349138 925.880022 C 291.016703 930.246094 285.372575 932.702009 280.829741 932.974888 C 276.149246 933.384208 272.707705 932.974888 270.367457 931.746931 C 268.027209 930.518973 265.962284 928.608817 264.172683 925.880022 C 262.383082 923.151228 261.557112 916.875 261.557112 906.9149 C 261.557112 897.091239 262.933728 886.994699 265.824623 876.761719 C 268.577856 866.528739 272.157058 856.022879 276.562231 845.107701 C 280.829741 834.192522 286.198545 823.140904 292.530981 811.952846 C 299.001078 800.764788 306.297144 789.849609 314.281519 779.20731 C 322.265894 768.701451 328.047683 762.015904 331.626886 759.15067 C 335.206088 756.148996 339.473599 753.010882 344.56708 749.599888 C 349.522899 746.188895 354.478718 744.278739 359.572198 744.005859 Z M 359.572198 744.005859 " transform="matrix(0.0283757,0,0,0.0286299,0,0)"/>
<path style="fill-rule:evenodd;fill:rgb(99.607843%,81.960784%,0.784314%);fill-opacity:1;stroke-width:9;stroke-linecap:butt;stroke-linejoin:miter;stroke:rgb(100%,100%,100%);stroke-opacity:1;stroke-miterlimit:4;" d="M 36.480334 202.203683 C 45.153017 202.476562 57.95555 205.614676 74.887931 211.618025 C 91.820313 217.621373 107.789063 224.443359 122.794181 232.220424 C 137.7993 239.861049 149.6382 246.410156 158.310884 251.867746 C 166.983567 257.188895 176.48222 263.328683 186.669181 270.423549 C 196.856142 277.518415 203.050916 281.748047 205.391164 283.248884 C 207.731412 284.749721 209.658675 286.523438 211.172953 288.433594 C 212.687231 290.34375 215.99111 294.164062 221.359914 299.894531 C 226.453394 305.76144 230.445582 311.082589 233.061153 315.72154 C 235.814386 320.496931 237.741649 324.590123 238.842942 328.001116 C 239.944235 331.412109 240.35722 335.505301 239.944235 340.144252 C 239.668912 344.919643 238.567619 348.876395 236.778017 352.150949 C 235.126078 355.289062 232.235183 358.154297 228.518319 360.746652 C 224.663793 363.339007 217.918373 364.430525 208.282058 364.021205 C 198.645744 363.611886 187.082166 360.610212 173.591325 355.016183 C 160.100485 349.422154 149.087554 343.964565 140.414871 338.506975 C 131.742188 333.185826 120.729256 325.81808 107.376078 316.130859 C 94.16056 306.443638 83.698276 298.120815 75.851563 290.889509 C 67.867188 283.931083 59.882813 275.744699 51.760776 266.193917 C 43.638739 256.779576 37.030981 247.365234 31.524515 237.950893 C 26.155711 228.536551 23.54014 220.213728 23.54014 212.845982 C 23.54014 205.614676 27.807651 202.067243 36.480334 202.203683 Z M 36.480334 202.203683 " transform="matrix(0.0283757,0,0,0.0286299,0,0)"/>
<path style="fill-rule:evenodd;fill:rgb(99.607843%,81.960784%,0.784314%);fill-opacity:1;stroke-width:9;stroke-linecap:butt;stroke-linejoin:miter;stroke:rgb(100%,100%,100%);stroke-opacity:1;stroke-miterlimit:4;" d="M 864.652748 152.94894 C 866.442349 152.539621 870.296875 152.8125 876.216325 153.631138 C 882.135776 154.449777 886.403287 155.814174 889.018858 157.86077 C 891.496767 159.770926 894.800647 163.318359 898.517511 168.366629 C 902.509698 173.4149 904.574623 179.008929 904.987608 185.421596 C 905.400593 191.970703 905.125269 195.927455 904.436961 197.564732 C 903.748653 199.065569 901.82139 201.794364 898.930496 205.341797 C 895.90194 208.88923 892.185075 212.982422 887.50458 217.348493 C 882.961746 221.851004 880.621498 224.443359 880.483836 225.261998 C 880.208513 225.944196 876.216325 230.037388 868.23195 237.405134 C 860.385237 244.909319 855.016433 250.094029 852.400862 253.095703 C 849.922953 256.097377 843.315194 261.554967 832.577586 269.468471 C 821.839978 277.245536 810.964709 284.203962 799.951778 290.20731 C 788.938847 296.210658 779.164871 299.758092 770.629849 300.986049 C 762.094828 302.214007 755.487069 302.214007 750.668912 300.986049 C 745.988416 299.758092 741.996228 297.847935 738.830011 295.25558 C 735.663793 292.663225 733.048222 289.797991 730.845636 286.523438 C 728.64305 283.385324 727.541756 279.155692 727.541756 273.970982 C 727.541756 268.649833 728.64305 264.283761 730.845636 260.736328 C 733.048222 257.052455 734.975485 254.4601 736.627425 252.822824 C 738.279364 251.321987 740.344289 248.866071 742.684537 245.591518 C 745.024784 242.453404 751.219558 236.450056 760.993534 227.854353 C 770.767511 219.25865 776.136315 214.346819 777.237608 212.982422 C 778.338901 211.481585 780.128502 210.117188 782.46875 208.88923 C 784.946659 207.797712 795.684267 200.293527 814.819235 186.649554 C 834.091864 173.00558 846.619073 164.136998 852.813847 160.043806 C 858.870959 155.677734 862.725485 153.358259 864.652748 152.94894 Z M 864.652748 152.94894 " transform="matrix(0.0283757,0,0,0.0286299,0,0)"/>
<path style="fill-rule:evenodd;fill:rgb(99.607843%,81.960784%,0.784314%);fill-opacity:1;stroke-width:9;stroke-linecap:butt;stroke-linejoin:miter;stroke:rgb(100%,100%,100%);stroke-opacity:1;stroke-miterlimit:4;" d="M 203.601563 635.945592 C 212.824892 635.536272 218.606681 635.945592 220.946929 637.037109 C 223.287177 637.992188 225.076778 639.493025 226.453394 641.67606 C 227.830011 643.722656 228.655981 647.679408 228.931304 653.409877 C 229.344289 659.276786 228.793642 663.915737 227.279364 667.19029 C 225.765086 670.464844 223.011853 675.240234 219.157328 681.516462 C 215.302802 687.79269 209.108028 695.160435 200.297683 703.619699 C 191.762662 712.215402 185.70555 717.536551 182.264009 719.856027 C 178.822468 722.175502 177.032866 723.676339 177.032866 724.631417 C 177.032866 725.450056 173.866649 727.633092 167.534213 731.453404 C 161.201778 735.137277 152.804418 739.912667 142.617457 745.506696 C 132.430496 751.100725 123.482489 755.193917 115.773438 757.649833 C 108.064386 760.105748 101.043642 761.606585 94.435884 762.015904 C 87.965787 762.425223 82.872306 762.015904 79.430765 760.787946 C 75.989224 759.559989 73.09833 757.786272 70.758082 755.739676 C 68.417834 753.69308 66.903556 751.100725 65.939925 747.962612 C 64.976293 744.824498 64.563308 741.822824 64.976293 738.957589 C 65.389278 735.955915 66.765894 732.408482 69.106142 728.31529 C 71.308728 724.222098 77.365841 716.717913 87.139817 706.075614 C 97.051455 695.569754 105.586476 687.51981 112.882543 681.925781 C 120.17861 676.195312 123.895474 673.057199 123.895474 672.23856 C 123.895474 671.283482 126.511045 669.509766 131.742188 666.508092 C 136.97333 663.642857 143.71875 659.686105 152.253772 654.774275 C 160.651131 649.726004 169.048491 645.496373 177.30819 641.94894 C 185.567888 638.401507 194.378233 636.354911 203.601563 635.945592 Z M 203.601563 635.945592 " transform="matrix(0.0283757,0,0,0.0286299,0,0)"/>
</g>
</svg>
